<svg xmlns="http://www.w3.org/2000/svg" viewBox="0 0 411 369.2" style="enable-background:new 0 0 411 369.2" xml:space="preserve"><path d="M254.1 74.2c39.9 39.7 79.9 79.3 119.7 119.2l1.1 1.1c42.8-44.2 42.4-114.6-1.2-158.2-43.7-43.7-114.5-44-158.6-.9l-9.6 9.6-31.9 31.9c-10.7 10.8-10.7 28.2 0 38.9 10.8 10.8 28.2 10.8 38.9 0l41.6-41.6zm-43.7 236.5-25 25c-15.9 15.9 8.3 39.5 23.9 23.9l25-25c15.7-15.7-8.3-39.5-23.9-23.9zm-33.9-33.9-25 25c-10.6 10.6-3.1 28.9 12 28.9 4.3 0 8.7-1.6 11.9-4.9l25-25c15.9-15.9-8.1-39.7-23.9-24zm-33.8-33.9-25 25c-10.6 10.6-3.1 28.9 11.9 28.9 4.3 0 8.7-1.6 12-4.9l25-25c15.9-16-8.3-39.6-23.9-24zm-35 15.1 25.2-25.2c14-16-7.9-39.9-24.1-23.8l-25.1 25.1c-3.2 3.2-4.8 7.6-4.8 11.8-.1 15.1 18.2 22.7 28.8 12.1z" style="fill-rule:evenodd;clip-rule:evenodd;fill:#ffd504"/><path d="M174.6 231c26.9 27 53.7 54 80.6 80.9 20.6 20.6 46.4-12.7 29.6-29.6l-68.7-68.6-15.1-15.1c-6.4-6.4 3.6-16.3 10-10l15.1 15.1 50.3 50.3 18.4 18.4c4.1 4.1 9.5 6.1 14.8 6.1 18.6 0 27.9-22.5 14.8-35.7l-83.8-83.7c-6.4-6.4 3.6-16.3 10-10l83.7 83.8c4.1 4.1 9.5 6.1 14.8 6.1 18.6 0 27.9-22.5 14.8-35.7-36.5-36.5-73-72.9-109.7-109.3l-31.7 31.7c-16.2 16.2-42.6 16.2-58.8 0-16.2-16.2-16.2-42.6 0-58.8L195.6 35C151.4-7.6 81.1-7.3 37.4 36.4c-44 44-44 115.4 0 159.4l32.8 32.8 3.6-4.4 25-25c20.3-20.3 55.5-3.8 52.8 25 12.2-1.4 18.3 2.1 23 6.8z" style="fill-rule:evenodd;clip-rule:evenodd;fill:#215ca8"/></svg>