<svg width="343" height="55" fill="none" xmlns="http://www.w3.org/2000/svg"><path d="M51.317 29.475h0l.143.143 1.077 1.077 1.06-1.093c6.299-6.49 6.227-16.842-.177-23.247C47-.072 36.606-.121 30.122 6.227l-.005.005-.006.006-1.282 1.282h0l-4.27 4.263-.003.004a5.176 5.176 0 007.327 7.315l4.501-4.502.947.94c4.67 4.642 9.335 9.278 13.986 13.935zM29.481 43.029l-3.335 3.341c-.821.82-1.196 1.832-1.129 2.849.065.978.528 1.84 1.155 2.457.626.618 1.49 1.065 2.458 1.127 1.007.063 2.018-.3 2.833-1.118l3.334-3.34.001-.002c.819-.817 1.183-1.828 1.113-2.837-.068-.97-.526-1.828-1.146-2.447-.62-.62-1.478-1.075-2.447-1.142-1.009-.07-2.02.293-2.836 1.111 0 0 0 0 0 0v.001z" fill="#FFD504" stroke="#fff" stroke-width="3"/><path d="M24.956 38.503h0l-3.344 3.338h-.001c-2.364 2.364-.684 6.423 2.66 6.423.951 0 1.926-.362 2.659-1.104l3.34-3.34c.82-.819 1.191-1.83 1.127-2.843-.062-.976-.518-1.838-1.143-2.46-.624-.62-1.488-1.072-2.46-1.133-1.009-.064-2.02.303-2.838 1.12z" fill="#FFD504" stroke="#fff" stroke-width="3"/><path d="M25.74 39.298l.002-.002c.82-.822 1.194-1.834 1.128-2.851-.063-.979-.525-1.841-1.152-2.46-.627-.618-1.49-1.066-2.46-1.126-1.006-.063-2.017.3-2.833 1.117l-3.337 3.337c-2.357 2.357-.7 6.422 2.655 6.422.954 0 1.925-.364 2.66-1.1l3.338-3.337z" fill="#FFD504" stroke="#fff" stroke-width="3"/><path d="M21.237 34.743l.037-.037.034-.04c1.537-1.766 1.052-3.981-.15-5.228-.607-.63-1.46-1.097-2.442-1.15-1.018-.054-2.009.343-2.819 1.15l-.001.002-3.357 3.357a3.731 3.731 0 00-1.087 2.641c0 3.347 4.055 5.035 6.423 2.668l3.362-3.363z" fill="#FFD504" stroke="#fff" stroke-width="3"/><path d="M24.698 34.5l-.002-.002c-.205-.207-.383-.33-.602-.408-.23-.082-.611-.153-1.269-.088l-1.811.18.17-1.813c.232-2.453-2.783-3.855-4.502-2.136l-3.292 3.293-.44.533-1.05 1.275-1.168-1.168-4.38-4.38c-6.47-6.469-6.47-16.956 0-23.425l18.346 28.14zm0 0l.006.006c3.587 3.607 7.177 7.215 10.772 10.811l.002.001c.964.962 2.124 1.407 3.301 1.294 1.13-.109 2.08-.71 2.74-1.46.868-.985 1.447-2.538 1.1-4.023.385.109.78.163 1.175.163 3.014 0 4.847-2.886 4.153-5.43.37.1.75.15 1.127.15 3.816 0 5.74-4.628 3.037-7.33-4.88-4.88-9.766-9.754-14.667-14.615l-1.06-1.052-1.057 1.056-4.244 4.244a4.057 4.057 0 11-5.738-5.738l4.264-4.263 1.077-1.078-1.094-1.06C23.117-.1 12.772-.066 6.352 6.36L24.698 34.5z" fill="#215CA8" stroke="#fff" stroke-width="3"/><path d="M77.28 37.36c-1.28 0-2.56-.24-3.84-.72a10.47 10.47 0 01-3.39-2.1l2.52-3.03c.7.6 1.48 1.09 2.34 1.47.86.38 1.69.57 2.49.57.92 0 1.6-.17 2.04-.51.46-.34.69-.8.69-1.38 0-.62-.26-1.07-.78-1.35-.5-.3-1.18-.63-2.04-.99l-2.55-1.08c-.66-.28-1.29-.65-1.89-1.11-.6-.48-1.09-1.07-1.47-1.77-.38-.7-.57-1.52-.57-2.46 0-1.08.29-2.06.87-2.94.6-.88 1.42-1.58 2.46-2.1 1.06-.52 2.27-.78 3.63-.78 1.12 0 2.24.22 3.36.66 1.12.44 2.1 1.08 2.94 1.92l-2.25 2.79c-.64-.5-1.28-.88-1.92-1.14-.64-.28-1.35-.42-2.13-.42-.76 0-1.37.16-1.83.48-.44.3-.66.73-.66 1.29 0 .6.28 1.05.84 1.35.58.3 1.29.62 2.13.96l2.52 1.02c1.18.48 2.12 1.14 2.82 1.98.7.84 1.05 1.95 1.05 3.33 0 1.08-.29 2.08-.87 3-.58.92-1.42 1.66-2.52 2.22-1.1.56-2.43.84-3.99.84zm15.22 0c-1.84 0-3.16-.53-3.96-1.59-.78-1.06-1.17-2.45-1.17-4.17v-6.03h-2.04V22.3l2.28-.18.51-3.96h3.66v3.96h3.57v3.45h-3.57v5.97c0 .84.17 1.45.51 1.83.36.36.83.54 1.41.54.24 0 .48-.03.72-.09.26-.06.49-.13.69-.21l.69 3.21c-.38.12-.85.24-1.41.36-.54.12-1.17.18-1.89.18zm11.617 0c-1.26 0-2.45-.3-3.57-.9-1.1-.62-1.99-1.51-2.67-2.67-.68-1.18-1.02-2.59-1.02-4.23 0-1.66.34-3.07 1.02-4.23.68-1.16 1.57-2.04 2.67-2.64a7.26 7.26 0 013.57-.93c1.26 0 2.44.31 3.54.93 1.1.6 1.99 1.48 2.67 2.64.68 1.16 1.02 2.57 1.02 4.23 0 1.64-.34 3.05-1.02 4.23-.68 1.16-1.57 2.05-2.67 2.67-1.1.6-2.28.9-3.54.9zm0-3.57c.9 0 1.58-.38 2.04-1.14.46-.78.69-1.81.69-3.09 0-1.3-.23-2.33-.69-3.09-.46-.76-1.14-1.14-2.04-1.14-.92 0-1.61.38-2.07 1.14-.44.76-.66 1.79-.66 3.09 0 1.28.22 2.31.66 3.09.46.76 1.15 1.14 2.07 1.14zm9.381 9.09c-.62 0-1.13-.04-1.53-.12-.42-.08-.78-.18-1.08-.3l.78-3.24c.2.06.4.11.6.15.18.04.37.06.57.06.58 0 .98-.2 1.2-.6.24-.38.36-.98.36-1.8V22.12h4.41v14.79c0 1.08-.16 2.07-.48 2.97-.32.9-.87 1.62-1.65 2.16-.76.56-1.82.84-3.18.84zm3.12-22.95c-.74 0-1.34-.21-1.8-.63-.46-.42-.69-.98-.69-1.68s.23-1.26.69-1.68c.46-.42 1.06-.63 1.8-.63s1.34.21 1.8.63c.46.42.69.98.69 1.68s-.23 1.26-.69 1.68c-.46.42-1.06.63-1.8.63zm6.1 17.07V22.12h4.41V37h-4.41zm2.49-17.16l-2.16-2.16 4.62-5.46 2.97 2.91-5.43 4.71zM131.009 37V22.12h3.6l.3 1.92h.12c.62-.62 1.28-1.15 1.98-1.59.7-.46 1.54-.69 2.52-.69 1.06 0 1.91.22 2.55.66.66.42 1.18 1.03 1.56 1.83.66-.68 1.36-1.26 2.1-1.74.74-.5 1.6-.75 2.58-.75 1.6 0 2.77.54 3.51 1.62.76 1.06 1.14 2.52 1.14 4.38V37h-4.41v-8.67c0-1.08-.15-1.82-.45-2.22-.28-.4-.74-.6-1.38-.6-.74 0-1.59.48-2.55 1.44V37h-4.41v-8.67c0-1.08-.15-1.82-.45-2.22-.28-.4-.74-.6-1.38-.6-.74 0-1.58.48-2.52 1.44V37h-4.41zm32.382.36c-1.42 0-2.7-.31-3.84-.93-1.14-.62-2.04-1.51-2.7-2.67-.66-1.16-.99-2.56-.99-4.2 0-1.62.33-3.01.99-4.17.68-1.16 1.56-2.05 2.64-2.67 1.08-.64 2.21-.96 3.39-.96 1.42 0 2.59.32 3.51.96.94.62 1.64 1.47 2.1 2.55.48 1.06.72 2.27.72 3.63 0 .38-.02.76-.06 1.14-.04.36-.08.63-.12.81h-8.91c.2 1.08.65 1.88 1.35 2.4.7.5 1.54.75 2.52.75 1.06 0 2.13-.33 3.21-.99l1.47 2.67c-.76.52-1.61.93-2.55 1.23-.94.3-1.85.45-2.73.45zm-3.3-9.42h5.37c0-.82-.2-1.49-.6-2.01-.38-.54-1.01-.81-1.89-.81-.68 0-1.29.24-1.83.72-.54.46-.89 1.16-1.05 2.1zM177.454 37v-2.37l6.24-9.06h-5.55v-3.45h11.04v2.34l-6.24 9.09h6.45V37h-11.94zm17.949.36c-1.36 0-2.44-.43-3.24-1.29-.8-.88-1.2-1.95-1.2-3.21 0-1.56.66-2.78 1.98-3.66 1.32-.88 3.45-1.47 6.39-1.77-.04-.66-.24-1.18-.6-1.56-.34-.4-.92-.6-1.74-.6-.62 0-1.25.12-1.89.36-.64.24-1.32.57-2.04.99l-1.59-2.91c.94-.58 1.94-1.05 3-1.41 1.08-.36 2.2-.54 3.36-.54 1.9 0 3.36.55 4.38 1.65 1.02 1.1 1.53 2.79 1.53 5.07V37h-3.6l-.3-1.53h-.12c-.62.56-1.29 1.02-2.01 1.38-.7.34-1.47.51-2.31.51zm1.5-3.42c.5 0 .93-.11 1.29-.33.38-.24.76-.55 1.14-.93v-2.61c-1.56.2-2.64.52-3.24.96-.6.42-.9.92-.9 1.5 0 .48.15.84.45 1.08.32.22.74.33 1.26.33zm24.646 3.42c-2.54 0-4.48-.75-5.82-2.25-1.34-1.5-2.01-3.89-2.01-7.17v-10.5h4.44v10.95c0 1.92.29 3.26.87 4.02.58.76 1.42 1.14 2.52 1.14s1.95-.38 2.55-1.14c.6-.76.9-2.1.9-4.02V17.44h4.26v10.5c0 3.28-.66 5.67-1.98 7.17-1.3 1.5-3.21 2.25-5.73 2.25zM233.43 37V15.97h4.29v12.06h.12l4.71-5.91h4.8l-5.22 6.12 5.61 8.76h-4.77l-3.36-5.79-1.89 2.13V37h-4.29zm16.436 0V22.12h3.6l.3 2.61h.12c.54-1 1.19-1.74 1.95-2.22.76-.5 1.52-.75 2.28-.75.42 0 .77.03 1.05.09.28.04.52.11.72.21l-.72 3.81c-.26-.08-.52-.14-.78-.18-.24-.04-.52-.06-.84-.06-.56 0-1.15.21-1.77.63-.6.4-1.1 1.1-1.5 2.1V37h-4.41zm14.854.36c-1.36 0-2.44-.43-3.24-1.29-.8-.88-1.2-1.95-1.2-3.21 0-1.56.66-2.78 1.98-3.66 1.32-.88 3.45-1.47 6.39-1.77-.04-.66-.24-1.18-.6-1.56-.34-.4-.92-.6-1.74-.6-.62 0-1.25.12-1.89.36-.64.24-1.32.57-2.04.99l-1.59-2.91c.94-.58 1.94-1.05 3-1.41 1.08-.36 2.2-.54 3.36-.54 1.9 0 3.36.55 4.38 1.65 1.02 1.1 1.53 2.79 1.53 5.07V37h-3.6l-.3-1.53h-.12c-.62.56-1.29 1.02-2.01 1.38-.7.34-1.47.51-2.31.51zm1.5-3.42c.5 0 .93-.11 1.29-.33.38-.24.76-.55 1.14-.93v-2.61c-1.56.2-2.64.52-3.24.96-.6.42-.9.92-.9 1.5 0 .48.15.84.45 1.08.32.22.74.33 1.26.33zm9.7 8.94c-.62 0-1.13-.04-1.53-.12-.42-.08-.78-.18-1.08-.3l.78-3.24c.2.06.4.11.6.15.18.04.37.06.57.06.58 0 .98-.2 1.2-.6.24-.38.36-.98.36-1.8V22.12h4.41v14.79c0 1.08-.16 2.07-.48 2.97-.32.9-.87 1.62-1.65 2.16-.76.56-1.82.84-3.18.84zm3.12-22.95c-.74 0-1.34-.21-1.8-.63-.46-.42-.69-.98-.69-1.68s.23-1.26.69-1.68c.46-.42 1.06-.63 1.8-.63s1.34.21 1.8.63c.46.42.69.98.69 1.68s-.23 1.26-.69 1.68c-.46.42-1.06.63-1.8.63zM285.139 37V22.12h4.41V37h-4.41zm2.19-17.07c-.74 0-1.34-.21-1.8-.63-.46-.42-.69-.98-.69-1.68s.23-1.26.69-1.68c.46-.42 1.06-.63 1.8-.63s1.34.21 1.8.63c.46.42.69.98.69 1.68s-.23 1.26-.69 1.68c-.46.42-1.06.63-1.8.63zM293.43 37V22.12h3.6l.3 1.89h.12c.64-.6 1.34-1.12 2.1-1.56.78-.46 1.67-.69 2.67-.69 1.62 0 2.79.54 3.51 1.62.74 1.06 1.11 2.52 1.11 4.38V37h-4.41v-8.67c0-1.08-.15-1.82-.45-2.22-.28-.4-.74-.6-1.38-.6-.56 0-1.04.13-1.44.39-.4.24-.84.59-1.32 1.05V37h-4.41zm23.558.36c-1.26 0-2.45-.3-3.57-.9-1.1-.62-1.99-1.51-2.67-2.67-.68-1.18-1.02-2.59-1.02-4.23 0-1.66.34-3.07 1.02-4.23.68-1.16 1.57-2.04 2.67-2.64a7.26 7.26 0 013.57-.93c1.26 0 2.44.31 3.54.93 1.1.6 1.99 1.48 2.67 2.64.68 1.16 1.02 2.57 1.02 4.23 0 1.64-.34 3.05-1.02 4.23-.68 1.16-1.57 2.05-2.67 2.67-1.1.6-2.28.9-3.54.9zm0-3.57c.9 0 1.58-.38 2.04-1.14.46-.78.69-1.81.69-3.09 0-1.3-.23-2.33-.69-3.09-.46-.76-1.14-1.14-2.04-1.14-.92 0-1.61.38-2.07 1.14-.44.76-.66 1.79-.66 3.09 0 1.28.22 2.31.66 3.09.46.76 1.15 1.14 2.07 1.14zm14.721 3.57c-1.62 0-2.8-.53-3.54-1.59-.72-1.08-1.08-2.55-1.08-4.41v-9.24h4.41v8.67c0 1.06.15 1.8.45 2.22.3.4.77.6 1.41.6.56 0 1.03-.13 1.41-.39.38-.26.79-.68 1.23-1.26v-9.84h4.41V37h-3.6l-.33-2.07h-.09c-.62.74-1.3 1.33-2.04 1.77-.74.44-1.62.66-2.64.66z" fill="#fff"/></svg>